<svg width="19" height="18" viewBox="0 0 19 18" fill="none" xmlns="http://www.w3.org/2000/svg">
<path fill-rule="evenodd" clip-rule="evenodd" d="M10.966 10.9537C8.91672 13.0039 5.59231 13.0058 3.54069 10.958C1.48908 8.91028 1.48716 5.58827 3.5364 3.53814C5.58565 1.488 8.91006 1.48608 10.9617 3.53384C13.0133 5.58161 13.0152 8.90361 10.966 10.9537ZM11.8437 12.854C8.99681 15.1877 4.78704 15.0278 2.12679 12.3726C-0.706614 9.54448 -0.709266 4.9566 2.12086 2.12525C4.95099 -0.706101 9.54219 -0.708755 12.3756 2.11932C15.0358 4.77458 15.2007 8.98113 12.8686 11.8287L18.0243 16.9747L16.9994 18L11.8437 12.854Z" fill="#0A94CF"/>
</svg>
